<?xml version="1.0" encoding="UTF-8"?>
<svg width="170px" height="170px" viewBox="0 0 170 170" version="1.1" xmlns="http://www.w3.org/2000/svg" xmlns:xlink="http://www.w3.org/1999/xlink">
    <title>ContentProduction</title>
    <defs>
        <rect id="path-1" x="0" y="0" width="300" height="500" rx="8"></rect>
        <filter x="-23.3%" y="-10.0%" width="146.7%" height="128.0%" filterUnits="objectBoundingBox" id="filter-2">
            <feOffset dx="0" dy="20" in="SourceAlpha" result="shadowOffsetOuter1"></feOffset>
            <feGaussianBlur stdDeviation="20" in="shadowOffsetOuter1" result="shadowBlurOuter1"></feGaussianBlur>
            <feColorMatrix values="0 0 0 0 0   0 0 0 0 0   0 0 0 0 0  0 0 0 0.07 0" type="matrix" in="shadowBlurOuter1" result="shadowMatrixOuter1"></feColorMatrix>
            <feOffset dx="0" dy="4.5" in="SourceAlpha" result="shadowOffsetOuter2"></feOffset>
            <feGaussianBlur stdDeviation="4.45" in="shadowOffsetOuter2" result="shadowBlurOuter2"></feGaussianBlur>
            <feColorMatrix values="0 0 0 0 0   0 0 0 0 0   0 0 0 0 0  0 0 0 0.04 0" type="matrix" in="shadowBlurOuter2" result="shadowMatrixOuter2"></feColorMatrix>
            <feOffset dx="0" dy="1.3" in="SourceAlpha" result="shadowOffsetOuter3"></feOffset>
            <feGaussianBlur stdDeviation="1.35" in="shadowOffsetOuter3" result="shadowBlurOuter3"></feGaussianBlur>
            <feColorMatrix values="0 0 0 0 0   0 0 0 0 0   0 0 0 0 0  0 0 0 0.03 0" type="matrix" in="shadowBlurOuter3" result="shadowMatrixOuter3"></feColorMatrix>
            <feMerge>
                <feMergeNode in="shadowMatrixOuter1"></feMergeNode>
                <feMergeNode in="shadowMatrixOuter2"></feMergeNode>
                <feMergeNode in="shadowMatrixOuter3"></feMergeNode>
            </feMerge>
        </filter>
    </defs>
    <g id="Page-1" stroke="none" stroke-width="1" fill="none" fill-rule="evenodd">
        <g id="landing_v3" transform="translate(-955.000000, -2211.000000)">
            <g id="services" transform="translate(250.000000, 1593.000000)">
                <g id="content_produktion" transform="translate(640.000000, 550.000000)">
                    <g id="card_background">
                        <use fill="black" fill-opacity="1" filter="url(#filter-2)" xlink:href="#path-1"></use>
                        <use fill="#FFFFFF" fill-rule="evenodd" xlink:href="#path-1"></use>
                    </g>
                    <g id="ContentProduction" transform="translate(65.000000, 68.000000)" fill-rule="nonzero">
                        <g id="rest" fill="#282850">
                            <polygon id="Path" points="93.5 120.7 98.6 120.7 98.6 125.8 93.5 125.8"></polygon>
                            <polygon id="Path" points="104.55 120.7 109.65 120.7 109.65 125.8 104.55 125.8"></polygon>
                            <polygon id="Path" points="82.45 120.7 87.55 120.7 87.55 125.8 82.45 125.8"></polygon>
                            <path d="M156.290323,21.9354839 L82.2580645,21.9354839 L82.2580645,8.22580645 C82.2580645,3.7016129 78.5564516,0 74.0322581,0 L8.22580645,0 C3.7016129,0 0,3.7016129 0,8.22580645 L0,63.0645161 C0,67.5887097 3.7016129,71.2903226 8.22580645,71.2903226 L21.9354839,71.2903226 L21.9354839,123.387097 C21.9354839,130.961694 28.0705645,137.096774 35.6451613,137.096774 L70.5362903,137.096774 L66.4233871,153.548387 L54.8387097,153.548387 C50.3145161,153.548387 46.6129032,157.25 46.6129032,161.774194 L46.6129032,170 L145.322581,170 L145.322581,161.774194 C145.322581,157.25 141.620968,153.548387 137.096774,153.548387 L125.512097,153.548387 L121.399194,137.096774 L156.290323,137.096774 C163.864919,137.096774 170,130.961694 170,123.387097 L170,35.6451613 C170,28.0705645 163.864919,21.9354839 156.290323,21.9354839 Z M38.3870968,71.2903226 L74.0322581,71.2903226 C78.5564516,71.2903226 82.2580645,67.5887097 82.2580645,63.0645161 L82.2580645,38.3870968 L153.548387,38.3870968 L153.548387,109.677419 L38.3870968,109.677419 L38.3870968,71.2903226 Z M5.48387097,63.0645161 L5.48387097,8.22580645 C5.48387097,6.71774194 6.71774194,5.48387097 8.22580645,5.48387097 L74.0322581,5.48387097 C75.5403226,5.48387097 76.7741935,6.71774194 76.7741935,8.22580645 L76.7741935,63.0645161 C76.7741935,64.5725806 75.5403226,65.8064516 74.0322581,65.8064516 L8.22580645,65.8064516 C6.71774194,65.8064516 5.48387097,64.5725806 5.48387097,63.0645161 Z M139.83871,161.774194 L139.83871,164.516129 L52.0967742,164.516129 L52.0967742,161.774194 C52.0967742,160.266129 53.3306452,159.032258 54.8387097,159.032258 L137.096774,159.032258 C138.604839,159.032258 139.83871,160.266129 139.83871,161.774194 Z M119.891129,153.548387 L72.0443548,153.548387 L76.1572581,137.096774 L115.743952,137.096774 L119.891129,153.548387 Z M164.516129,123.387097 C164.516129,127.91129 160.814516,131.612903 156.290323,131.612903 L35.6451613,131.612903 C31.1209677,131.612903 27.4193548,127.91129 27.4193548,123.387097 L27.4193548,71.2903226 L32.9032258,71.2903226 L32.9032258,109.677419 C32.9032258,112.693548 35.3709677,115.16129 38.3870968,115.16129 L153.548387,115.16129 C156.564516,115.16129 159.032258,112.693548 159.032258,109.677419 L159.032258,38.3870968 C159.032258,35.3709677 156.564516,32.9032258 153.548387,32.9032258 L82.2580645,32.9032258 L82.2580645,27.4193548 L156.290323,27.4193548 C160.814516,27.4193548 164.516129,31.1209677 164.516129,35.6451613 L164.516129,123.387097 Z" id="Shape"></path>
                        </g>
                        <g id="colorful" transform="translate(11.000000, 9.000000)" fill="#8CA0C3">
                            <path d="M126.015246,43.2627841 L126.015246,34.7767857 L111.769392,34.7767857 L89.7998835,42.9890422 L84.8224167,42.9890422 C80.2912055,42.9890422 76.5838509,46.6845576 76.5838509,51.2012987 L76.5838509,62.150974 C76.5838509,65.7096185 78.8837839,68.7207792 82.0762281,69.8499645 L82.0762281,89.5251623 C82.0762281,92.5363231 84.5477979,95 87.5686053,95 L93.0609825,95 C96.0817899,95 98.5533597,92.5363231 98.5533597,89.5251623 L98.5533597,73.6139154 L111.769392,78.575487 L126.015246,78.575487 L126.015246,70.0894886 C132.262825,68.8234324 137,63.2801593 137,56.6761364 C137,50.0721134 132.262825,44.5288403 126.015246,43.2627841 Z M93.0609825,47.6084365 L109.538114,41.4492441 L109.538114,71.8688109 L93.0609825,65.7096185 L93.0609825,47.6084365 Z M82.0762281,51.2012987 C82.0762281,49.6957183 83.312013,48.4638799 84.8224167,48.4638799 L87.5686053,48.4638799 L87.5686053,64.8883929 L84.8224167,64.8883929 C83.312013,64.8883929 82.0762281,63.6565544 82.0762281,62.150974 L82.0762281,51.2012987 Z M93.0609825,89.5251623 L87.5686053,89.5251623 L87.5686053,70.3632305 L89.7998835,70.3632305 L93.0609825,71.5608513 L93.0609825,89.5251623 Z M120.522868,73.1006494 L115.030491,73.1006494 L115.030491,40.2516234 L120.522868,40.2516234 L120.522868,73.1006494 Z M126.015246,64.3751268 L126.015246,48.9771459 C129.20769,50.1063312 131.507623,53.1174919 131.507623,56.6761364 C131.507623,60.2347808 129.20769,63.2459416 126.015246,64.3751268 Z" id="Shape"></path>
                            <path d="M47.0139752,78.0357143 C43.4187888,78.0357143 40.3767081,80.2852493 39.2359278,83.4077381 L33.1863354,83.4077381 L33.1863354,88.7797619 L39.2359278,88.7797619 C40.3767081,91.9022507 43.4187888,94.1517857 47.0139752,94.1517857 C50.6091615,94.1517857 53.6512422,91.9022507 54.7920225,88.7797619 L77.4347826,88.7797619 L77.4347826,83.4077381 L54.7920225,83.4077381 C53.6512422,80.2852493 50.6091615,78.0357143 47.0139752,78.0357143 Z M47.0139752,88.7797619 C45.4929348,88.7797619 44.2484472,87.5710565 44.2484472,86.09375 C44.2484472,84.6164435 45.4929348,83.4077381 47.0139752,83.4077381 C48.5350155,83.4077381 49.7795031,84.6164435 49.7795031,86.09375 C49.7795031,87.5710565 48.5350155,88.7797619 47.0139752,88.7797619 Z" id="Shape"></path>
                            <path d="M18.7204969,0 L18.7204969,31.3839286 L50.2049689,15.6745094 L18.7204969,0 Z M24.3239624,9.00673367 L37.6672148,15.6745094 L24.3239624,22.3422851 L24.3239624,9.00673367 Z" id="Shape"></path>
                            <polygon id="Path" points="0 34.7767857 5.10559006 34.7767857 5.10559006 39.8660714 0 39.8660714"></polygon>
                            <polygon id="Path" points="11.0621118 34.7767857 60.4161491 34.7767857 60.4161491 39.8660714 11.0621118 39.8660714"></polygon>
                            <polygon id="Path" points="0 45.8035714 60.4161491 45.8035714 60.4161491 50.8928571 0 50.8928571"></polygon>
                            <polygon id="Path" points="109.770186 89.0625 114.875776 89.0625 114.875776 94.1517857 109.770186 94.1517857"></polygon>
                            <polygon id="Path" points="119.981366 89.0625 125.086957 89.0625 125.086957 94.1517857 119.981366 94.1517857"></polygon>
                            <polygon id="Path" points="131.89441 89.0625 137 89.0625 137 94.1517857 131.89441 94.1517857"></polygon>
                        </g>
                    </g>
                </g>
            </g>
        </g>
    </g>
</svg>