<svg xmlns="http://www.w3.org/2000/svg" width="170" height="147" viewBox="0 0 170 147">
  <g fill="none" fill-rule="evenodd">
    <g fill="#282850" fill-rule="nonzero">
      <path d="M155.344828,2.84217094e-14 L14.6551724,2.84217094e-14 C6.55818966,2.84217094e-14 0,6.52917931 0,14.5903448 L0,26.2626207 L0,107.968552 C0,116.029717 6.55818966,122.558897 14.6551724,122.558897 L70.3448276,122.558897 L99.6551724,122.558897 L155.344828,122.558897 C163.44181,122.558897 170,116.029717 170,107.968552 L170,26.2626207 L170,14.5903448 C170,6.52917931 163.44181,2.84217094e-14 155.344828,2.84217094e-14 Z M164.137931,107.968552 C164.137931,112.783366 160.181034,116.722759 155.344828,116.722759 L99.6551724,116.722759 L70.3814655,116.722759 L14.6551724,116.722759 C9.81896552,116.722759 5.86206897,112.783366 5.86206897,107.968552 L5.86206897,29.1806897 L164.137931,29.1806897 L164.137931,107.968552 Z M164.137931,23.3445517 L5.86206897,23.3445517 L5.86206897,14.5903448 C5.86206897,9.77553103 9.81896552,5.83613793 14.6551724,5.83613793 L155.344828,5.83613793 C160.181034,5.83613793 164.137931,9.77553103 164.137931,14.5903448 L164.137931,23.3445517 Z"/>
      <path d="M26.775-1.20792265e-13L26.775-1.20792265e-13C25.1015625-1.20792265e-13 23.8 1.33603448 23.8 2.96896552 23.8 4.60189655 25.13875 5.93793103 26.775 5.93793103 28.41125 5.93793103 29.75 4.60189655 29.75 2.96896552 29.75 1.33603448 28.41125-1.20792265e-13 26.775-1.20792265e-13zM14.025-1.20792265e-13L14.025-1.20792265e-13C12.3515625-1.20792265e-13 11.05 1.33603448 11.05 2.96896552 11.05 4.60189655 12.38875 5.93793103 14.025 5.93793103 15.66125 5.93793103 17 4.60189655 17 2.96896552 17 1.33603448 15.66125-1.20792265e-13 14.025-1.20792265e-13zM2.975-1.20792265e-13L2.975-1.20792265e-13C1.3015625-1.20792265e-13-9.14823772e-14 1.33603448-9.14823772e-14 2.96896552-9.14823772e-14 4.60189655 1.33875 5.93793103 2.975 5.93793103 4.61125 5.93793103 5.95 4.60189655 5.95 2.96896552 5.95 1.33603448 4.61125-1.20792265e-13 2.975-1.20792265e-13z" transform="translate(11.9 11.876)"/>
    </g>
    <g transform="translate(11 36)">
      <path fill="#8CA0C3" fill-rule="nonzero" d="M61.6426695,1.04805054e-13 L2.93536521,1.04805054e-13 C1.32091435,1.04805054e-13 9.9475983e-14,1.33269231 9.9475983e-14,2.96153846 C9.9475983e-14,4.59038462 1.32091435,5.92307692 2.93536521,5.92307692 L61.6426695,5.92307692 C63.2571203,5.92307692 64.5780347,4.59038462 64.5780347,2.96153846 C64.5780347,1.33269231 63.2571203,1.04805054e-13 61.6426695,1.04805054e-13 Z" transform="translate(0 11)"/>
      <path fill="#8CA0C3" fill-rule="nonzero" d="M144.06,1.04805054e-13 L2.94,1.04805054e-13 C1.323,1.04805054e-13 0,1.33269231 0,2.96153846 C0,4.59038462 1.323,5.92307692 2.94,5.92307692 L144.06,5.92307692 C145.677,5.92307692 147,4.59038462 147,2.96153846 C147,1.33269231 145.677,1.04805054e-13 144.06,1.04805054e-13 Z"/>
      <g transform="translate(59.274 11.133)">
        <path fill="#8CA0C3" d="M14.650436,1.20792265e-13 C15.8502296,1.20792265e-13 16.729241,0.500574795 17.2874701,1.50172439 L29.0076216,24.7878782 C29.2029575,25.1699914 29.3006254,25.6066068 29.3006254,26.0977244 L29.3006254,84.313109 L29.3006254,84.313109 C29.3006254,91.8622127 23.1460216,98.8669552 14.650436,98.8669552 C6.1548505,98.8669552 0.0368721471,92.0050922 3.19744231e-14,84.313109 L0.000970022733,82.5959909 C0.00101032087,82.5294725 0.00105187065,82.4610218 0.00109467209,82.3906388 L0.00183056756,81.18997 C0.00188588552,81.1002638 0.00194245513,81.0086253 0.00200027639,80.9150545 L0.00296146919,79.3665687 C0.00303180697,79.2536747 0.0031033964,79.1388484 0.00317623749,79.0220898 L0.00386560183,77.9190898 C0.00394595283,77.7907373 0.00402755547,77.6604524 0.00411040977,77.5282353 L0.00488989305,76.2861085 C0.00498025726,76.1422974 0.00507187312,75.9965541 0.00516474063,75.8488784 L0.00573696553,74.9396365 C0.00583483965,74.7842316 0.00593396542,74.6268943 0.00603434285,74.4676247 L0.00697153426,72.982026 C0.0070794216,72.8111625 0.00718856058,72.6383667 0.00729895122,72.4636386 L0.00797631488,71.3920821 C0.00832250661,70.8447099 0.00867996322,70.2799469 0.00904868469,69.6977931 L0.00980114745,68.5102976 C0.00992906122,68.3085171 0.0100582266,68.1048042 0.0101886437,67.899159 L0.0109861659,66.6421001 C0.0119341317,65.148479 0.0129434283,63.5601743 0.0140140559,61.8771861 L0.0149467566,60.4114369 C0.0206330793,51.4778154 0.0279415428,40.0399112 0.0368721471,26.0977244 C0.044452445,25.5861283 0.142120374,25.1495129 0.329875934,24.7878782 C0.355478965,24.7385644 0.450236241,24.5516395 0.614147761,24.2271036 L0.701866375,24.0533681 C1.85480447,21.769196 5.63752482,14.2519815 12.0500274,1.50172439 C12.5838396,0.500574795 13.4506424,1.20792265e-13 14.650436,1.20792265e-13 Z M22.8911675,87.2238782 L6.40970452,87.2238782 C7.61834514,90.6076475 10.8413868,93.0454167 14.650436,93.0454167 C18.4594853,93.0454167 21.6825269,90.6076475 22.8911675,87.2238782 L22.8911675,87.2238782 Z M11.7203982,29.0084936 L5.86032242,29.0084936 L5.86032242,81.4023398 L11.7203982,81.4023398 L11.7203982,29.0084936 Z M23.4405496,29.0084936 L17.5804739,29.0084936 L17.5804739,81.4023398 L23.4405496,81.4023398 L23.4405496,29.0084936 Z M14.650436,9.32441669 L7.65497061,23.1869552 L21.6459014,23.1869552 L14.650436,9.32441669 Z"/>
        <g fill="#FFF" transform="translate(5.86 9.324)">
          <polygon points="5.86 19.684 5.86 72.078 0 72.078 0 19.684"/>
          <polygon points="1.795 13.863 8.79 0 15.786 13.863"/>
          <path d="M8.79011361,83.721 C4.98106438,83.721 1.75802272,81.2832308 0.549382101,77.8994615 L17.0308451,77.8994615 C15.8222045,81.2832308 12.5991628,83.721 8.79011361,83.721 Z"/>
          <polygon points="17.58 72.078 11.72 72.078 11.72 19.684 17.58 19.684"/>
        </g>
      </g>
    </g>
  </g>
</svg>
