<?xml version="1.0" encoding="UTF-8"?>
<svg width="170px" height="146px" viewBox="0 0 170 146" version="1.1" xmlns="http://www.w3.org/2000/svg" xmlns:xlink="http://www.w3.org/1999/xlink">
    <title>DigitaleKonzepte</title>
    <defs>
        <rect id="path-1" x="0" y="0" width="300" height="499" rx="8"></rect>
        <filter x="-23.3%" y="-10.0%" width="146.7%" height="128.1%" filterUnits="objectBoundingBox" id="filter-2">
            <feOffset dx="0" dy="20" in="SourceAlpha" result="shadowOffsetOuter1"></feOffset>
            <feGaussianBlur stdDeviation="20" in="shadowOffsetOuter1" result="shadowBlurOuter1"></feGaussianBlur>
            <feColorMatrix values="0 0 0 0 0   0 0 0 0 0   0 0 0 0 0  0 0 0 0.07 0" type="matrix" in="shadowBlurOuter1" result="shadowMatrixOuter1"></feColorMatrix>
            <feOffset dx="0" dy="4.5" in="SourceAlpha" result="shadowOffsetOuter2"></feOffset>
            <feGaussianBlur stdDeviation="4.45" in="shadowOffsetOuter2" result="shadowBlurOuter2"></feGaussianBlur>
            <feColorMatrix values="0 0 0 0 0   0 0 0 0 0   0 0 0 0 0  0 0 0 0.04 0" type="matrix" in="shadowBlurOuter2" result="shadowMatrixOuter2"></feColorMatrix>
            <feOffset dx="0" dy="1.3" in="SourceAlpha" result="shadowOffsetOuter3"></feOffset>
            <feGaussianBlur stdDeviation="1.35" in="shadowOffsetOuter3" result="shadowBlurOuter3"></feGaussianBlur>
            <feColorMatrix values="0 0 0 0 0   0 0 0 0 0   0 0 0 0 0  0 0 0 0.03 0" type="matrix" in="shadowBlurOuter3" result="shadowMatrixOuter3"></feColorMatrix>
            <feMerge>
                <feMergeNode in="shadowMatrixOuter1"></feMergeNode>
                <feMergeNode in="shadowMatrixOuter2"></feMergeNode>
                <feMergeNode in="shadowMatrixOuter3"></feMergeNode>
            </feMerge>
        </filter>
    </defs>
    <g id="Page-1" stroke="none" stroke-width="1" fill="none" fill-rule="evenodd">
        <g id="landing_v3" transform="translate(-635.000000, -1684.000000)">
            <g id="services" transform="translate(250.000000, 1593.000000)">
                <g id="digitale_konzepte" transform="translate(320.000000, 0.000000)">
                    <g id="card_background">
                        <use fill="black" fill-opacity="1" filter="url(#filter-2)" xlink:href="#path-1"></use>
                        <use fill="#FFFFFF" fill-rule="evenodd" xlink:href="#path-1"></use>
                    </g>
                    <g id="DigitaleKonzepte" transform="translate(65.000000, 91.000000)">
                        <g id="rest" fill="#282850" fill-rule="nonzero">
                            <path d="M155.344828,-1.63424829e-13 C163.44181,-1.63424829e-13 170,6.52917931 170,14.5903448 L170,14.5903448 L170,107.968552 C170,116.029717 163.44181,122.558897 155.344828,122.558897 L155.344828,122.558897 L103.318,122.558 L103.318,116.722 L155.344828,116.722759 C160.094674,116.722759 163.996333,112.922802 164.134163,108.225633 L164.137931,107.968552 L164.137931,29.1806897 L5.86206897,29.1806897 L5.86206897,107.968552 C5.86206897,112.783366 9.81896552,116.722759 14.6551724,116.722759 L14.6551724,116.722759 L66.768,116.722 L66.768,122.558 L14.6551724,122.558897 C6.66334528,122.558897 0.170602125,116.198205 0.00330736752,108.281837 L0,107.968552 L0,14.5903448 C0,6.52917931 6.55818966,-1.63424829e-13 14.6551724,-1.63424829e-13 L14.6551724,-1.63424829e-13 Z M155.344828,5.83613793 L14.6551724,5.83613793 C9.81896552,5.83613793 5.86206897,9.77553103 5.86206897,14.5903448 L5.86206897,14.5903448 L5.86206897,23.3445517 L164.137931,23.3445517 L164.137931,14.5903448 C164.137931,9.77553103 160.181034,5.83613793 155.344828,5.83613793 L155.344828,5.83613793 Z" id="Combined-Shape"></path>
                            <path d="M38.675,11.8758621 L38.675,11.8758621 C37.0015625,11.8758621 35.7,13.2118966 35.7,14.8448276 C35.7,16.4777586 37.03875,17.8137931 38.675,17.8137931 C40.31125,17.8137931 41.65,16.4777586 41.65,14.8448276 C41.65,13.2118966 40.31125,11.8758621 38.675,11.8758621 Z" id="Path"></path>
                            <path d="M25.925,11.8758621 L25.925,11.8758621 C24.2515625,11.8758621 22.95,13.2118966 22.95,14.8448276 C22.95,16.4777586 24.28875,17.8137931 25.925,17.8137931 C27.56125,17.8137931 28.9,16.4777586 28.9,14.8448276 C28.9,13.2118966 27.56125,11.8758621 25.925,11.8758621 Z" id="Path"></path>
                            <path d="M14.875,11.8758621 L14.875,11.8758621 C13.2015625,11.8758621 11.9,13.2118966 11.9,14.8448276 C11.9,16.4777586 13.23875,17.8137931 14.875,17.8137931 C16.51125,17.8137931 17.85,16.4777586 17.85,14.8448276 C17.85,13.2118966 16.51125,11.8758621 14.875,11.8758621 Z" id="Path"></path>
                        </g>
                        <g id="colorful" transform="translate(11.000000, 36.000000)" fill="#8CA0C3">
                            <path d="M61.6426695,11 L2.93536521,11 C1.32091435,11 0,12.3326923 0,13.9615385 C0,15.5903846 1.32091435,16.9230769 2.93536521,16.9230769 L61.6426695,16.9230769 C63.2571203,16.9230769 64.5780347,15.5903846 64.5780347,13.9615385 C64.5780347,12.3326923 63.2571203,11 61.6426695,11 Z" id="Path" fill-rule="nonzero"></path>
                            <path d="M144.06,0 L2.94,0 C1.323,0 0,1.33269231 0,2.96153846 C0,4.59038462 1.323,5.92307692 2.94,5.92307692 L144.06,5.92307692 C145.677,5.92307692 147,4.59038462 147,2.96153846 C147,1.33269231 145.677,0 144.06,0 Z" id="Path" fill-rule="nonzero"></path>
                            <path d="M73.9248555,11.1330448 C75.1246491,11.1330448 76.0036604,11.6336196 76.5618896,12.6347692 L88.2820411,35.9209231 C88.4773769,36.3030363 88.5750448,36.7396517 88.5750448,37.2307692 L88.5750448,95.4461538 L88.5750448,95.4461538 C88.5750448,102.995258 82.420441,110 73.9248555,110 C65.42927,110 59.3112916,103.138137 59.2744195,95.4461538 L59.2753895,93.7290357 C59.2754298,93.6625173 59.2754713,93.5940667 59.2755141,93.5236836 L59.27625,92.3230148 C59.2763053,92.2333087 59.2763619,92.1416702 59.2764197,92.0480994 L59.2773809,90.4996135 C59.2774513,90.3867195 59.2775229,90.2718933 59.2775957,90.1551346 L59.2782851,89.0521346 C59.2783654,88.9237821 59.278447,88.7934973 59.2785299,88.6612801 L59.2793094,87.4191533 C59.2793997,87.2753423 59.2794913,87.1295989 59.2795842,86.9819232 L59.2801564,86.0726814 C59.2802543,85.9172764 59.2803534,85.7599391 59.2804538,85.6006696 L59.281391,84.1150708 C59.2814989,83.9442073 59.281608,83.7714115 59.2817184,83.5966834 L59.2823958,82.5251269 C59.282742,81.9777548 59.2830994,81.4129918 59.2834681,80.8308379 L59.2842206,79.6433425 C59.2843485,79.4415619 59.2844777,79.237849 59.2846081,79.0322039 L59.2854056,77.775145 C59.2863536,76.2815238 59.2873629,74.6932191 59.2884335,73.0102309 L59.2893662,71.5444818 C59.2950525,62.6108602 59.302361,51.1729561 59.3112916,37.2307692 C59.3188719,36.7191731 59.4165398,36.2825578 59.6042954,35.9209231 C59.6298984,35.8716093 59.7246557,35.6846844 59.8885672,35.3601485 L59.9762858,35.1864129 C61.1292239,32.9022409 64.9119443,25.3850263 71.3244469,12.6347692 C71.858259,11.6336196 72.7250619,11.1330448 73.9248555,11.1330448 Z M82.165587,98.3569231 L65.684124,98.3569231 C66.8927646,101.740692 70.1158063,104.178462 73.9248555,104.178462 C77.7339047,104.178462 80.9569464,101.740692 82.165587,98.3569231 L82.165587,98.3569231 Z M70.9948176,40.1415385 L65.1347419,40.1415385 L65.1347419,92.5353846 L70.9948176,92.5353846 L70.9948176,40.1415385 Z M82.7149691,40.1415385 L76.8548934,40.1415385 L76.8548934,92.5353846 L82.7149691,92.5353846 L82.7149691,40.1415385 Z M73.9248555,20.4574615 L66.9293901,34.32 L80.9203209,34.32 L73.9248555,20.4574615 Z" id="Combined-Shape"></path>
                        </g>
                    </g>
                </g>
            </g>
        </g>
    </g>
</svg>