<svg xmlns="http://www.w3.org/2000/svg" width="170" height="170" viewBox="0 0 170 170">
  <g fill="none">
    <g fill="#E5F0F5" transform="translate(38 11)">
      <polygon points="0 62.92 5.985 62.92 5.985 73.973 0 73.973"/>
      <polygon points="42.748 141.995 48.733 141.995 48.733 147.947 42.748 147.947"/>
      <polygon points="46.168 119.037 52.153 119.037 52.153 124.989 46.168 124.989"/>
      <path d="M11.9694656,68.5882353 L34.540458,68.5882353 L34.540458,79.9251337 L40.1832061,79.9251337 L40.1832061,65.7540107 C40.1832061,64.1951872 38.9135878,62.9197861 37.3618321,62.9197861 L14.7908397,62.9197861 C13.239084,62.9197861 11.9694656,64.1951872 11.9694656,65.7540107 L11.9694656,68.5882353 Z"/>
      <polygon points="46.168 73.973 60.702 73.973 60.702 79.925 46.168 79.925"/>
      <path d="M14.7908397 56.9679144L37.3618321 56.9679144C38.9135878 56.9679144 40.1832061 55.6925134 40.1832061 54.1336898L40.1832061 48.4652406 34.540458 48.4652406 34.540458 51.2994652 11.9694656 51.2994652 11.9694656 54.1336898C11.9694656 55.6925134 13.239084 56.9679144 14.7908397 56.9679144zM112 159L112 102.28669C112 94.7533425 109.321985 87.4332035 104.3888 81.7476586L100.089881 76.5240642 95.7557252 80.1485991 100.089881 85.4432627C104.14214 90.0983026 106.362074 96.1036594 106.362074 102.28669L106.362074 159 112 159zM74.5364351 159L77.4032211 159 77.4032211 153.334174C77.4032211 152.696768 77.1882121 152.059363 76.7581942 151.563603 70.5229347 143.950149 69.6987338 133.326725 74.6439396 124.827986L77.009038 120.755674C77.6540648 119.65792 77.4390559 118.241463 76.5431853 117.356178L59.3424695 100.3587C56.583188 97.5257865 56.6190228 93.0639484 59.4141391 90.2664468 62.2092554 87.5043565 66.7602782 87.4689451 69.6270641 90.1956239L92.5613518 112.858928 96.610687 108.857439 91.7371509 104.006075 91.7371509 82.5113472 86.003579 82.5113472 86.003579 98.340249 78.5857703 91.0100864 80.270007 91.0100864 80.270007 85.3442603 72.6730242 85.3442603C67.9069925 81.5198277 61.0983759 81.5198277 56.3323442 85.3442603L45.8685754 85.3442603 45.8685754 91.0100864 52.283009 91.0100864C51.6379822 92.8160685 51.4229732 94.7636962 51.6379822 96.6759126L45.8685754 96.6759126 45.8685754 102.341739 53.6447324 102.341739C54.1105851 103.049967 54.6839423 103.722784 55.2931343 104.360189L58.9841212 108.007565 45.8685754 108.007565 45.8685754 113.673391 64.753528 113.673391 70.4870999 119.339217 57.3357193 119.339217 57.3357193 125.005043 68.229506 125.005043C67.4411398 126.811025 66.796113 128.723242 66.3660951 130.670869L45.8685754 130.670869 45.8685754 136.336695 65.7927379 136.336695C65.7210682 142.392047 67.5486443 148.341165 71.0246223 153.334174L14.3339298 153.334174C9.56789816 153.334174 5.73357193 149.545153 5.73357193 144.835435L5.73357193 142.002522 0 142.002522 0 144.835435C0 152.661357 6.4144336 159 14.3339298 159L74.5364351 159zM91.480916 22.9572193L46.1679389 22.9572193 46.1679389 17.2231205 85.8073176 17.2231205C85.8073176 16.1726796 85.8073176 15.2191127 85.8073176 14.3624196 85.8073176 10.0716768 82.4670142 5.74098408 77.2880932 5.74098408 73.8354792 5.74098408 63.4620945 5.74098408 46.1679389 5.74098408L46.1679389 0C61.6006517 0 71.9740365 0 77.2880932 0 85.2591783 0 91.480916 6.46008411 91.480916 14.3624196 91.480916 19.6306432 91.480916 22.4955764 91.480916 22.9572193z"/>
      <polygon points="65.832 73.973 71.817 73.973 71.817 79.925 65.832 79.925"/>
    </g>
    <g fill="#8CA0C3">
      <path d="M22.3833333,96.259524 C16.1145833,96.259524 11.05,101.298335 11.05,107.535185 L11.05,135.724339 C11.05,141.961189 16.1145833,147 22.3833333,147 L67.7166667,147 C73.9854167,147 79.05,141.961189 79.05,135.724339 L79.05,107.535185 C79.05,101.298335 73.9854167,96.259524 67.7166667,96.259524 L56.3833333,96.259524 L56.3833333,87.802778 C56.3833333,86.7809212 55.8166667,85.7943009 54.8958333,85.3009907 C53.975,84.8076805 52.8416667,84.8781534 51.9916667,85.4419365 L35.7,96.259524 L22.3833333,96.259524 Z M38.1083333,101.439281 L50.7166667,93.0882443 L50.7166667,99.0784394 C50.7166667,100.628843 51.9916667,101.897355 53.55,101.897355 L67.7166667,101.897355 C70.8333333,101.897355 73.3833333,104.434378 73.3833333,107.535185 L73.3833333,135.724339 C73.3833333,138.825146 70.8333333,141.362169 67.7166667,141.362169 L22.3833333,141.362169 C19.2666667,141.362169 16.7166667,138.825146 16.7166667,135.724339 L16.7166667,107.535185 C16.7166667,104.434378 19.2666667,101.897355 22.3833333,101.897355 L36.55,101.897355 C37.1166667,101.897355 37.6479167,101.721172 38.1083333,101.439281 Z"/>
      <path d="M35.4166667 135.585266C36.3020833 136.076588 37.3645833 136.076588 38.25 135.585266L58.0833333 124.355043C58.96875 123.863721 59.5 122.916171 59.5 121.933526 59.5 120.915787 58.96875 120.003331 58.0833333 119.512009L38.25 108.281786C37.3645833 107.790464 36.3020833 107.790464 35.4166667 108.281786 34.53125 108.773109 34 109.720659 34 110.738398L34 133.198843C34 134.181488 34.53125 135.093943 35.4166667 135.585266zM39.6666667 115.546337L50.9645833 121.933526 39.6666667 128.320715 39.6666667 115.546337zM11.2928571 56.6367131L24.5619643 56.6367131 40.7954464 67.5038824C41.6777009 68.0702495 42.7716964 68.1410454 43.6892411 67.6454742 44.6067857 67.1499029 45.1714286 66.1941584 45.1714286 65.167618L45.1714286 56.672111 67.7571429 56.672111C74.0035045 56.672111 79.05 51.6102048 79.05 45.3447684L79.05 11.3273426C79.05 5.06190623 74.0035045 0 67.7571429 0L11.2928571 0C5.04649554 0 0 5.06190623 0 11.3273426L0 45.3093704C0 51.5748068 5.04649554 56.6367131 11.2928571 56.6367131zM67.7571429 50.9730417L42.3482143 50.9730417C40.7954464 50.9730417 39.525 52.2473678 39.525 53.8048774L39.525 59.8225282 26.9616964 51.433215C26.5029241 51.1146335 25.9382812 50.9730417 25.4089286 50.9730417L11.2928571 50.9730417C8.57551339 50.9730417 6.24636161 49.0261547 5.75229911 46.3713088L28.0909821 23.9644092 45.8772321 44.3536259C46.8653571 45.4863602 48.5945759 45.627952 49.7591518 44.7076054L61.8989732 34.9731703 73.2977009 46.4067068C72.8036384 49.0615527 70.4744866 50.9730417 67.7571429 50.9730417zM5.64642857 11.3273426C5.64642857 8.21232339 8.18732143 5.66367131 11.2928571 5.66367131L67.7571429 5.66367131C70.8626786 5.66367131 73.4035714 8.21232339 73.4035714 11.3273426L73.4035714 38.4775669 64.1222545 29.1679072C63.0988393 28.1413668 61.4754911 28.0705709 60.3462054 28.9555195L48.3475446 38.5837608 30.3495536 17.9467584C29.8202009 17.3449934 29.1143973 16.9910139 28.3027232 16.9910139 27.5263393 16.955616 26.7499554 17.2741975 26.2206027 17.8051667L5.64642857 38.4775669 5.64642857 11.3273426z"/>
      <path d="M51 28.0404624C55.7104167 28.0404624 59.5 24.2521676 59.5 19.5433526 59.5 14.8345376 55.7104167 11.0462428 51 11.0462428 46.2895833 11.0462428 42.5 14.8345376 42.5 19.5433526 42.5 24.2521676 46.2895833 28.0404624 51 28.0404624zM51 16.7109827C52.5583333 16.7109827 53.8333333 17.9855491 53.8333333 19.5433526 53.8333333 21.1011561 52.5583333 22.3757225 51 22.3757225 49.4416667 22.3757225 48.1666667 21.1011561 48.1666667 19.5433526 48.1666667 17.9855491 49.4416667 16.7109827 51 16.7109827zM170 48.4333044C170 43.7246122 166.223951 39.9364162 161.530357 39.9364162L130.475 39.9364162 124.828571 39.9364162 99.4196429 39.9364162C94.7260491 39.9364162 90.95 43.7246122 90.95 48.4333044L90.95 71.0916729C90.95 75.8003651 94.7260491 79.5885611 99.4196429 79.5885611L116.358929 79.5885611 116.358929 88.0854493C116.358929 89.2183677 117.029442 90.2804787 118.088147 90.7053231 119.146853 91.1301675 120.346719 90.9177453 121.158393 90.1034602L131.639576 79.5885611 161.530357 79.5885611C166.223951 79.5885611 170 75.8003651 170 71.0916729 170 59.7624886 170 59.7624886 170 48.4333044zM164.353571 71.0916729C164.353571 72.6494357 163.083125 73.923969 161.530357 73.923969L130.475 73.923969C129.733906 73.923969 128.992812 74.2071986 128.46346 74.7382541L122.005357 81.252535 122.005357 76.756265C122.005357 75.1985022 120.734911 73.923969 119.182143 73.923969L99.4196429 73.923969C97.866875 73.923969 96.5964286 72.6494357 96.5964286 71.0916729L96.5964286 48.4333044C96.5964286 46.8755415 97.866875 45.6010083 99.4196429 45.6010083L161.530357 45.6010083C163.083125 45.6010083 164.353571 46.8755415 164.353571 48.4333044L164.353571 71.0916729z"/>
      <polygon points="102 50.983 113.05 50.983 113.05 56.931 102 56.931"/>
      <polygon points="119 50.983 158.95 50.983 158.95 56.931 119 56.931"/>
      <polygon points="102 62.029 130.05 62.029 130.05 67.977 102 67.977"/>
      <polygon points="136 62.029 141.95 62.029 141.95 67.977 136 67.977"/>
      <polygon points="147.05 62.029 158.1 62.029 158.1 67.977 147.05 67.977"/>
    </g>
  </g>
</svg>
