<?xml version="1.0" encoding="UTF-8"?>
<svg width="170px" height="173px" viewBox="0 0 170 173" version="1.1" xmlns="http://www.w3.org/2000/svg" xmlns:xlink="http://www.w3.org/1999/xlink">
    <title>MediaConsulting</title>
    <defs>
        <rect id="path-1" x="0" y="0" width="300" height="500" rx="8"></rect>
        <filter x="-23.3%" y="-10.0%" width="146.7%" height="128.0%" filterUnits="objectBoundingBox" id="filter-2">
            <feOffset dx="0" dy="20" in="SourceAlpha" result="shadowOffsetOuter1"></feOffset>
            <feGaussianBlur stdDeviation="20" in="shadowOffsetOuter1" result="shadowBlurOuter1"></feGaussianBlur>
            <feColorMatrix values="0 0 0 0 0   0 0 0 0 0   0 0 0 0 0  0 0 0 0.07 0" type="matrix" in="shadowBlurOuter1" result="shadowMatrixOuter1"></feColorMatrix>
            <feOffset dx="0" dy="4.5" in="SourceAlpha" result="shadowOffsetOuter2"></feOffset>
            <feGaussianBlur stdDeviation="4.45" in="shadowOffsetOuter2" result="shadowBlurOuter2"></feGaussianBlur>
            <feColorMatrix values="0 0 0 0 0   0 0 0 0 0   0 0 0 0 0  0 0 0 0.04 0" type="matrix" in="shadowBlurOuter2" result="shadowMatrixOuter2"></feColorMatrix>
            <feOffset dx="0" dy="1.3" in="SourceAlpha" result="shadowOffsetOuter3"></feOffset>
            <feGaussianBlur stdDeviation="1.35" in="shadowOffsetOuter3" result="shadowBlurOuter3"></feGaussianBlur>
            <feColorMatrix values="0 0 0 0 0   0 0 0 0 0   0 0 0 0 0  0 0 0 0.03 0" type="matrix" in="shadowBlurOuter3" result="shadowMatrixOuter3"></feColorMatrix>
            <feMerge>
                <feMergeNode in="shadowMatrixOuter1"></feMergeNode>
                <feMergeNode in="shadowMatrixOuter2"></feMergeNode>
                <feMergeNode in="shadowMatrixOuter3"></feMergeNode>
            </feMerge>
        </filter>
    </defs>
    <g id="Page-1" stroke="none" stroke-width="1" fill="none" fill-rule="evenodd">
        <g id="landing_v3" transform="translate(-320.000000, -2208.000000)">
            <g id="services" transform="translate(250.000000, 1593.000000)">
                <g id="media_consulting" transform="translate(0.000000, 550.000000)">
                    <g id="card_background">
                        <use fill="black" fill-opacity="1" filter="url(#filter-2)" xlink:href="#path-1"></use>
                        <use fill="#FFFFFF" fill-rule="evenodd" xlink:href="#path-1"></use>
                    </g>
                    <g id="MediaConsulting" transform="translate(70.000000, 65.000000)" fill-rule="nonzero">
                        <g id="rest" fill="#282850">
                            <path d="M99.1666667,150.27422 L93.5,150.27422 L93.5,122.43514 C93.5,120.872742 92.225,119.594417 90.6666667,119.594417 C89.1083333,119.594417 87.8333333,120.872742 87.8333333,122.43514 L87.8333333,150.27422 L14.1666667,150.27422 L14.1666667,93.4597701 L37.7541667,93.4597701 C39.3125,93.4597701 40.5875,92.181445 40.5875,90.6190476 C40.5875,89.0566502 39.3125,87.7783251 37.7541667,87.7783251 L11.3333333,87.7783251 C9.775,87.7783251 8.5,89.0566502 8.5,90.6190476 L8.5,150.27422 L2.83333333,150.27422 C1.275,150.27422 0,151.552545 0,153.114943 L0,158.796388 C0,166.643883 6.33958333,173 14.1666667,173 L87.8333333,173 C95.6604167,173 102,166.643883 102,158.796388 L102,153.114943 C102,151.552545 100.725,150.27422 99.1666667,150.27422 Z M96.3333333,158.796388 C96.3333333,163.519089 92.54375,167.318555 87.8333333,167.318555 L82.1666667,167.318555 L82.1666667,164.477833 C82.1666667,162.915435 80.8916667,161.63711 79.3333333,161.63711 C77.775,161.63711 76.5,162.915435 76.5,164.477833 L76.5,167.318555 L25.5,167.318555 L25.5,164.477833 C25.5,162.915435 24.225,161.63711 22.6666667,161.63711 C21.1083333,161.63711 19.8333333,162.915435 19.8333333,164.477833 L19.8333333,167.318555 L14.1666667,167.318555 C9.45625,167.318555 5.66666667,163.519089 5.66666667,158.796388 L5.66666667,155.955665 L96.3333333,155.955665 L96.3333333,158.796388 Z" id="Shape"></path>
                            <path d="M146.94375,20.1123153 L152.68125,20.1123153 C154.259062,20.1123153 155.55,18.8467734 155.55,17.3 C155.55,15.7532266 154.259062,14.4876847 152.68125,14.4876847 L146.94375,14.4876847 C142.174453,14.4876847 138.3375,18.2491564 138.3375,22.9246305 L138.3375,25.7369458 L135.46875,25.7369458 C133.890938,25.7369458 132.6,27.0024877 132.6,28.5492611 C132.6,30.0960345 133.890938,31.3615764 135.46875,31.3615764 L138.3375,31.3615764 L138.3375,39.7985222 C138.3375,41.3452956 139.628438,42.6108374 141.20625,42.6108374 C142.784063,42.6108374 144.075,41.3452956 144.075,39.7985222 L144.075,31.3615764 L146.94375,31.3615764 C148.521562,31.3615764 149.8125,30.0960345 149.8125,28.5492611 C149.8125,27.0024877 148.521562,25.7369458 146.94375,25.7369458 L144.075,25.7369458 L144.075,22.9246305 C144.075,21.3778571 145.365938,20.1123153 146.94375,20.1123153 Z" id="Path"></path>
                            <path d="M161.5,2.55665025 L127.5,2.55665025 C122.789583,2.55665025 119,6.35611658 119,11.0788177 L119,16.7602627 C119,18.3226601 120.275,19.6009852 121.833333,19.6009852 C123.391667,19.6009852 124.666667,18.3226601 124.666667,16.7602627 L124.666667,11.0788177 C124.666667,9.51642036 125.941667,8.23809524 127.5,8.23809524 L161.5,8.23809524 C163.058333,8.23809524 164.333333,9.51642036 164.333333,11.0788177 L164.333333,45.1674877 C164.333333,46.7298851 163.058333,48.0082102 161.5,48.0082102 L127.5,48.0082102 C125.941667,48.0082102 124.666667,46.7298851 124.666667,45.1674877 L124.666667,28.1231527 C124.666667,26.5607553 123.391667,25.2824302 121.833333,25.2824302 C120.275,25.2824302 119,26.5607553 119,28.1231527 L119,45.1674877 C119,49.8901888 122.789583,53.6896552 127.5,53.6896552 L161.5,53.6896552 C166.210417,53.6896552 170,49.8901888 170,45.1674877 L170,11.0788177 C170,6.35611658 166.210417,2.55665025 161.5,2.55665025 Z" id="Path"></path>
                            <path d="M132.6,116.327586 C132.6,122.691248 137.727891,127.832512 144.075,127.832512 C150.422109,127.832512 155.55,122.691248 155.55,116.327586 C155.55,109.963924 150.422109,104.82266 144.075,104.82266 C137.727891,104.82266 132.6,109.963924 132.6,116.327586 Z M149.8125,116.327586 C149.8125,119.491441 147.230625,122.080049 144.075,122.080049 C140.919375,122.080049 138.3375,119.491441 138.3375,116.327586 C138.3375,113.163732 140.919375,110.575123 144.075,110.575123 C147.230625,110.575123 149.8125,113.163732 149.8125,116.327586 Z" id="Shape"></path>
                            <path d="M161.5,90.3349754 L127.5,90.3349754 C122.789583,90.3349754 119,94.1344417 119,98.8571429 L119,132.945813 C119,137.668514 122.789583,141.46798 127.5,141.46798 L161.5,141.46798 C166.210417,141.46798 170,137.668514 170,132.945813 L170,127.264368 C170,125.70197 168.725,124.423645 167.166667,124.423645 C165.608333,124.423645 164.333333,125.70197 164.333333,127.264368 L164.333333,132.945813 C164.333333,134.50821 163.058333,135.786535 161.5,135.786535 L127.5,135.786535 C125.941667,135.786535 124.666667,134.50821 124.666667,132.945813 L124.666667,98.8571429 C124.666667,97.2947455 125.941667,96.0164204 127.5,96.0164204 L161.5,96.0164204 C163.058333,96.0164204 164.333333,97.2947455 164.333333,98.8571429 L164.333333,115.901478 C164.333333,117.463875 165.608333,118.7422 167.166667,118.7422 C168.725,118.7422 170,117.463875 170,115.901478 L170,98.8571429 C170,94.1344417 166.210417,90.3349754 161.5,90.3349754 Z" id="Path"></path>
                            <path d="M63.4134332,36.2143133 C63.8798708,36.5016512 64.3821883,36.6453202 64.9203856,36.6453202 C65.3868233,36.6453202 65.8173811,36.5375685 66.2120591,36.322065 L83.4343727,27.7019275 C84.8336857,26.9835827 85.4077628,25.2595552 84.6901664,23.8228656 C84.4031278,23.284107 83.97257,22.8531001 83.4343727,22.5657622 L66.2120591,13.9456247 C64.8127461,13.2272799 63.054635,13.8019557 62.3729184,15.2027281 C62.1576395,15.5978177 62.05,16.0288246 62.05,16.4957487 L62.05,33.7360238 C62.05,34.7776237 62.5523175,35.6755547 63.4134332,36.2143133 Z M67.7907712,21.2009071 L75.7202114,25.1518035 L67.7907712,29.1026999 L67.7907712,21.2009071 Z" id="Shape"></path>
                            <path d="M70.55,51.1330049 C84.6458333,51.1330049 96.05,39.6990969 96.05,25.5665025 C96.05,11.433908 84.6458333,0 70.55,0 C56.4541667,0 45.05,11.433908 45.05,25.5665025 C45.05,39.6990969 56.4541667,51.1330049 70.55,51.1330049 Z M70.55,5.68144499 C81.49375,5.68144499 90.3833333,14.5942118 90.3833333,25.5665025 C90.3833333,36.5387931 81.49375,45.4515599 70.55,45.4515599 C59.60625,45.4515599 50.7166667,36.5387931 50.7166667,25.5665025 C50.7166667,14.5942118 59.60625,5.68144499 70.55,5.68144499 Z" id="Shape"></path>
                            <path d="M2.85357143,79.2561576 L37.0964286,79.2561576 C38.6658929,79.2561576 39.95,77.9778325 39.95,76.4154351 L39.95,30.9638752 C39.95,29.4014778 38.6658929,28.1231527 37.0964286,28.1231527 L2.85357143,28.1231527 C1.28410714,28.1231527 0,29.4014778 0,30.9638752 L0,76.4154351 C0,77.9778325 1.28410714,79.2561576 2.85357143,79.2561576 Z M5.70714286,33.8045977 L34.2428571,33.8045977 L34.2428571,73.5747126 L5.70714286,73.5747126 L5.70714286,33.8045977 Z" id="Shape"></path>
                            <path d="M25.2875,39.2019704 L19.7625,39.2019704 C18.243125,39.2019704 17,40.5442118 17,42.1847291 C17,43.8252463 18.243125,45.1674877 19.7625,45.1674877 L25.2875,45.1674877 C26.806875,45.1674877 28.05,43.8252463 28.05,42.1847291 C28.05,40.5442118 26.806875,39.2019704 25.2875,39.2019704 Z" id="Path"></path>
                            <path d="M25.2166667,51.1330049 L13.8833333,51.1330049 C12.325,51.1330049 11.05,52.4752463 11.05,54.1157635 C11.05,55.7562808 12.325,57.0985222 13.8833333,57.0985222 L25.2166667,57.0985222 C26.775,57.0985222 28.05,55.7562808 28.05,54.1157635 C28.05,52.4752463 26.775,51.1330049 25.2166667,51.1330049 Z" id="Path"></path>
                            <path d="M25.2166667,62.2118227 L13.8833333,62.2118227 C12.325,62.2118227 11.05,63.554064 11.05,65.1945813 C11.05,66.8350985 12.325,68.1773399 13.8833333,68.1773399 L25.2166667,68.1773399 C26.775,68.1773399 28.05,66.8350985 28.05,65.1945813 C28.05,63.554064 26.775,62.2118227 25.2166667,62.2118227 Z" id="Path"></path>
                        </g>
                        <g id="colorful" transform="translate(20.000000, 45.000000)" fill="#8CA0C3">
                            <path d="M76.5457119,33.3038498 C75.7688944,31.9477013 74.0387099,31.4480677 72.6616242,32.2332063 C71.3198485,33.0183448 70.82551,34.7670626 71.6023276,36.1588992 L84.0667181,57.9286506 L38.8700612,75.0589468 C38.8700612,75.0589468 38.8700612,75.0589468 38.6582019,75.0589468 L38.4463426,75.0589468 L31.1018858,79.3415209 L26.2291213,82.1965703 C24.9226554,82.9460207 23.3690203,83.1601494 21.9213149,82.7675801 C20.4736095,82.3750109 19.2377634,81.4114317 18.4962558,80.1266595 L12.8466737,70.241051 C11.469588,67.5644422 12.3876451,64.2454473 14.965267,62.7108583 L24.746106,57.0007596 L31.8080836,69.3488481 C32.302422,70.241051 33.255789,70.7763728 34.2797758,70.7763728 C35.8334109,70.7763728 37.1045668,69.5272887 37.1045668,67.9213234 C37.1045668,67.4216898 36.9633273,66.9220561 36.7161581,66.4937987 L29.4423211,53.788829 L64.8934488,24.239068 L66.0586751,26.2732907 C66.8354927,27.6294392 68.5656772,28.1290728 69.9427628,27.3439342 C71.2845386,26.5587956 71.778877,24.8100779 71.0020595,23.4182413 L68.1772684,18.4932812 C67.7535498,17.7795188 67.047352,17.2798852 66.2352246,17.1371327 C65.4230972,16.9943802 64.5756598,17.2085089 63.904772,17.7438307 L24.3576972,50.6839628 L12.2817155,57.6431457 C7.83266954,60.2483782 5.71407625,65.5659077 7.09116189,70.5622441 L4.26637084,72.2038975 C0.205733697,74.5593132 -1.20666183,79.8054664 1.12379079,83.9095999 C2.25370721,85.8724463 4.0898214,87.3356591 6.27903446,87.906669 C6.98523223,88.0851096 7.72673988,88.192174 8.46824753,88.192174 C9.95126283,88.192174 11.3989682,87.7996047 12.7054341,87.0501542 L15.5302252,85.4085008 C16.8720009,86.8360255 18.6021854,87.8352928 20.4736095,88.3706145 C21.4269765,88.6561195 22.4509632,88.7631838 23.4396401,88.7631838 C25.4169939,88.7631838 27.3590377,88.2278621 29.0892222,87.2285948 L31.5609144,85.8010701 L37.2104965,95.7223667 C39.5409491,99.790812 44.7315027,101.218337 48.7568299,98.862921 C52.8174671,96.5075053 54.1945527,91.261352 51.8641001,87.1572186 L51.8641001,87.1572186 L46.7088564,78.0924368 L89.0807222,62.0327841 C89.8575398,61.7472791 90.4578079,61.104893 90.740287,60.3197545 C91.0227661,59.5346159 90.9521463,58.6781011 90.5284276,57.9643387 L76.5457119,33.3038498 Z M9.81002328,82.0895059 C9.17444529,82.4820752 8.39762775,82.5891396 7.6561201,82.3750109 C6.94992234,82.1965703 6.31434435,81.6969366 5.92593558,81.0545505 C5.53752681,80.4121644 5.43159715,79.6270258 5.64345648,78.8775754 C5.8553158,78.1281249 6.31434435,77.5214269 6.98523223,77.1288576 L9.4569244,75.701333 L12.2817155,80.6262931 L9.81002328,82.0895059 Z M46.9913355,90.0836442 C47.3797443,90.7260303 47.485674,91.5111689 47.2738146,92.2606193 C47.0619553,92.9743817 46.6029268,93.6167678 45.9320389,93.9736489 C44.5902631,94.7587875 42.8600786,94.294842 42.0832611,92.9386935 L36.433679,83.017397 L41.1298941,80.3051001 L41.3417534,80.3051001 L46.9913355,90.0836442 Z" id="Shape"></path>
                            <path d="M78.5108378,17.0940171 C79.4140201,17.0940171 80.2810751,16.666385 80.8229845,15.9536649 L89.4935345,4.55014317 C90.4328441,3.30288298 90.1799531,1.4854467 88.9154979,0.558910559 C87.6510427,-0.367625583 85.8446781,-0.118173544 84.8692412,1.12908665 L76.1986911,12.5326084 C75.2232542,13.7798686 75.5122726,15.5616689 76.7767278,16.523841 C77.2825099,16.8802011 77.8966738,17.0940171 78.5108378,17.0940171 Z" id="Path"></path>
                            <path d="M84.6829579,27.8977666 C85.2137212,28.6240557 86.0629424,29.0598291 86.9475478,29.0598291 C87.5490795,29.0598291 88.1506112,28.8419424 88.6459902,28.4787979 L99.9689397,19.7633298 C101.207387,18.7828396 101.490461,16.9671171 100.535087,15.6961113 C99.5797133,14.4251056 97.8105025,14.13459 96.5720549,15.1150801 L85.2491054,23.8305482 C84.0106578,24.8110384 83.7275841,26.6267609 84.6829579,27.8977666 L84.6829579,27.8977666 Z" id="Path"></path>
                            <path d="M112.926999,33.9527649 C112.641,32.4364598 111.175256,31.4138355 109.602264,31.6606759 C109.566514,31.6606759 109.530764,31.6606759 109.495014,31.6959388 L95.1950789,34.5169714 C93.622086,34.658023 92.4780912,36.0685393 92.6210905,37.6201072 C92.7640899,39.1716752 94.1940834,40.3000882 95.7670763,40.1590366 L96.3390737,40.1590366 L110.639009,37.338004 C112.176252,37.0559007 113.212997,35.6101215 112.962748,34.0585536 C112.926999,34.0232907 112.926999,33.9880278 112.926999,33.9527649 Z" id="Path"></path>
                        </g>
                    </g>
                </g>
            </g>
        </g>
    </g>
</svg>