<svg xmlns="http://www.w3.org/2000/svg" width="171" height="159" viewBox="0 0 171 159">
  <g fill="none">
    <g fill="#282850">
      <path d="M130.98082,2.52239642 C130.98082,1.14348638 129.858999,7.81597009e-14 128.506215,7.81597009e-14 L2.40036643,7.81597009e-14 C-0.800122145,7.81597009e-14 -0.800122145,5.04479283 2.40036643,5.04479283 L128.506215,5.04479283 C129.858999,5.04479283 130.98082,3.90130646 130.98082,2.52239642 Z" transform="translate(14.274 18.498)"/>
      <path d="M63.9346423 8.17124146e-14L2.3953883 8.17124146e-14C-.798462766 8.17124146e-14-.798462766 5.04479283 2.3953883 5.04479283L63.9346423 5.04479283C67.1284934 5.04479283 67.1284934 8.17124146e-14 63.9346423 8.17124146e-14zM63.9346423 14.2935797L2.3953883 14.2935797C-.798462766 14.2935797-.798462766 19.3383725 2.3953883 19.3383725L63.9346423 19.3383725C67.1284934 19.3383725 67.1284934 14.2935797 63.9346423 14.2935797zM63.9346423 27.7463606L2.3953883 27.7463606C-.798462766 27.7463606-.798462766 32.7911534 2.3953883 32.7911534L63.9346423 32.7911534C67.1284934 32.7911534 67.1284934 27.7463606 63.9346423 27.7463606zM63.9346423 41.1991415L2.3953883 41.1991415C-.798462766 41.1991415-.798462766 46.2439343 2.3953883 46.2439343L63.9346423 46.2439343C67.1284934 46.2439343 67.1284934 41.1991415 63.9346423 41.1991415z" transform="translate(15.113 31.95)"/>
      <path d="M161.778481,13.7552719 C161.778481,6.1684313 155.61455,0 148.033244,0 L35.9287989,0 C32.7314654,0 32.7314654,4.94793955 35.9287989,4.94793955 L148.033244,4.94793955 C152.878687,4.94793955 156.834151,8.90629119 156.834151,13.7552719 L156.834151,90.7781976 L4.94433012,90.7781976 L4.94433012,13.7552719 C4.94433012,8.90629119 8.89979421,4.94793955 13.7452377,4.94793955 L22.0846745,4.94793955 C25.282008,4.94793955 25.282008,0 22.0846745,0 L13.7452377,0 C6.16393155,0 0,6.1684313 0,13.7552719 L0,109.283491 C0,116.870332 6.16393155,123.038763 13.7452377,123.038763 L64.5070269,123.038763 L64.5070269,141.478085 L50.7947514,141.478085 C40.1149984,141.478085 40.0820362,158.070175 50.7947514,158.070175 L94.6015163,158.070175 C97.7988497,158.070175 97.7988497,153.122236 94.6015163,153.122236 L50.8277136,153.122236 C46.5096653,153.122236 46.5096653,146.426024 50.8277136,146.426024 L110.950768,146.426024 C115.268816,146.426024 115.268816,153.122236 110.950768,153.122236 L109.104885,153.122236 C105.907551,153.122236 105.907551,158.070175 109.104885,158.070175 L110.950768,158.070175 C121.630521,158.070175 121.663483,141.478085 110.950768,141.478085 L97.6010765,141.478085 L97.6010765,123.038763 L148.000282,123.038763 C155.581588,123.038763 161.745519,116.870332 161.745519,109.283491 L161.778481,13.7552719 Z M92.6567464,141.478085 L69.4513571,141.478085 L69.4513571,123.038763 L92.6567464,123.038763 L92.6567464,141.478085 Z M148.033244,118.090824 L13.7452377,118.090824 C8.89979421,118.090824 4.94433012,114.132472 4.94433012,109.283491 L4.94433012,95.7261371 L156.834151,95.7261371 L156.834151,109.283491 C156.834151,114.132472 152.878687,118.090824 148.033244,118.090824 Z"/>
    </g>
    <g transform="translate(89.474 31.813)">
      <g fill="#8CA0C3">
        <path d="M54.0394737,-7.10542736e-14 C55.6963279,-6.69438862e-14 57.0394737,1.34314575 57.0394737,3 L57.0394737,43.1728395 C57.0394737,44.8296938 55.6963279,46.1728395 54.0394737,46.1728395 L3,46.1728395 C1.34314575,46.1728395 3.44498286e-13,44.8296938 3.41060513e-13,43.1728395 L3.41060513e-13,3 C3.40413518e-13,1.34314575 1.34314575,-7.07499144e-14 3,-7.10542736e-14 L54.0394737,-7.10542736e-14 Z M51.6004118,5.21713143 L5.06946895,5.21713143 L5.06946895,41.2486243 C14.8555662,41.2345717 23.0983685,41.225016 29.7978759,41.2199571 L31.035948,41.2190613 C31.6459413,41.2186397 32.2423705,41.2182577 32.8252356,41.2179151 L34.5331386,41.2170061 C34.7183842,41.2169183 34.9021227,41.2168349 35.0843541,41.2167558 L37.1987886,41.2160181 C37.368963,41.2159741 37.5376303,41.2159346 37.7047904,41.2158995 L41.4272658,41.2158995 C41.570312,41.2159346 41.711851,41.2159741 41.8518829,41.2160181 L43.4599238,41.2167558 C43.5878987,41.2168349 43.7143665,41.2169183 43.8393272,41.2170061 L44.9232808,41.2179151 C45.2710345,41.2182577 45.6052242,41.2186397 45.9258497,41.2190613 L46.5490153,41.2199571 C49.7761091,41.225016 51.4599079,41.2345717 51.6004118,41.2486243 L51.6004118,41.2486243 L51.6004118,5.21713143 Z"/>
        <path d="M20.3026869 15.7311714C19.9018427 14.8355283 18.9999435 14.2716049 18.0312369 14.2716049 17.0625302 14.2716049 16.160631 14.8355283 15.7597869 15.7311714L9.47989567 29.1989892C8.11034494 32.1181222 12.6866486 34.207956 14.0227957 31.288823L14.2232177 30.8575875 21.839256 30.8575875 22.039678 31.288823C22.6075405 32.5493577 24.110706 33.0801091 25.3800457 32.5161857 26.6493854 31.9522623 27.1838442 30.4595239 26.6159817 29.1989892L20.3026869 15.7311714zM16.5280714 25.9149647L17.9978332 22.730456 19.4675949 25.9149647 16.5280714 25.9149647zM37.9263357 14.2716049L33.4509569 14.2716049C32.1308812 14.2716049 31.0361842 15.3889548 31.0361842 16.7363473L31.0361842 30.2759984C31.0361842 31.6233909 32.1308812 32.7407407 33.4509569 32.7407407L37.9263357 32.7407407C42.916866 32.7407407 46.9736842 28.5999736 46.9736842 23.5061728 46.9736842 18.412372 42.916866 14.2716049 37.9263357 14.2716049zM37.9263357 27.8112561L35.8657297 27.8112561 35.8657297 19.2010896 37.9263357 19.2010896C40.2445175 19.2010896 42.1441388 21.1400202 42.1441388 23.5061728 42.1441388 25.8723255 40.2445175 27.8112561 37.9263357 27.8112561z"/>
      </g>
      <g transform="translate(47.577 36.988)">
        <path fill="#8CA0C3" d="M14.775595,25.7674432 C9.47376784,33.1450067 6.82285425,36.8337884 6.82285425,36.8337884 C5.80235675,38.1673278 4.10123711,38.6895991 2.51375937,38.0416459 C0.926281629,37.3936927 0.142886331,36.2318199 0.142886331,34.4294148 C0.142886331,34.4294148 -8.8817842e-14,3.59597907 -8.8817842e-14,3.59597907 C0.0868512465,2.26080156 0.676143087,1.2509488 1.65957361,0.60581245 C2.64300414,-0.0393239052 4.36181441,-0.297002732 5.55573842,0.479453004 C5.55573842,0.479453004 30.7829314,19.1666999 30.7949417,19.1771736 C31.8100778,20.0624286 32.4032515,21.4014804 31.9862606,22.9606724 C31.5692696,24.5198644 30.215693,25.6445564 28.7529709,25.6445564 C28.7529709,25.6445564 24.0938456,25.6855187 14.775595,25.7674432 Z"/>
        <path fill="#FFF" d="M14.067587,20.7283039 C12.9150159,20.7283039 11.828306,21.452886 11.1367633,22.3750815 L4.94580985,30.773647 L4.94580985,6.17079037 L24.6053802,20.7283039 L14.067587,20.7283039 Z"/>
      </g>
    </g>
  </g>
</svg>
