<svg xmlns="http://www.w3.org/2000/svg" width="170" height="170" viewBox="0 0 170 170">
  <g fill="none">
    <g fill="#282850">
      <polygon points="21.25 44.2 27.2 44.2 27.2 50.15 21.25 50.15"/>
      <polygon points="32.3 44.2 38.25 44.2 38.25 50.15 32.3 50.15"/>
      <polygon points="44.2 44.2 50.15 44.2 50.15 50.15 44.2 50.15"/>
      <path d="M162.014113,125.658133 L165.715726,119.181617 L163.659274,117.12558 C167.875,106.913929 170,96.1197339 170,84.9828664 C170,65.3819794 163.179435,46.3293691 150.806452,31.2174965 L150.806452,23.8500302 L137.096774,3.28965934 L130.447581,13.2271719 C116.875,4.59181617 101.211694,0 85,0 C58.4717742,0 34.1028226,11.9935497 17.8568548,32.8965934 L10.9677419,32.8965934 L10.9677419,43.2453134 C3.80443548,55.9242088 0,70.3164685 0,84.9828664 C0,131.826245 38.1129032,169.965733 85,169.965733 C96.1391129,169.965733 106.935484,167.841161 117.149194,163.660552 L119.171371,165.716589 L125.649194,162.015723 C126.266129,162.289861 126.883065,162.563999 127.534274,162.80387 L129.487903,170 L144.637097,170 L146.590726,162.80387 C147.207661,162.563999 147.858871,162.324128 148.475806,162.015723 L154.953629,165.716589 L165.681452,154.990929 L161.979839,148.514412 C162.254032,147.897601 162.528226,147.28079 162.768145,146.629712 L169.965726,144.676477 L169.965726,129.530337 L162.768145,127.577101 C162.5625,126.891756 162.288306,126.274945 162.014113,125.658133 Z M164.516129,84.9828664 C164.516129,94.6462407 162.836694,104.001209 159.477823,112.910703 L155.022177,108.455956 L150.806452,110.854666 L150.806452,40.4353961 C159.683468,53.5254989 164.516129,69.0485789 164.516129,84.9828664 Z M112.179435,125.658133 C111.905242,126.274945 111.631048,126.891756 111.391129,127.542834 L104.193548,129.496069 L104.193548,131.586374 L20.6330645,131.586374 C19.125,129.530337 17.7540323,127.405765 16.4516129,125.212659 L16.4516129,60.3104213 L123.387097,60.3104213 L123.387097,110.854666 L119.171371,108.455956 L108.443548,119.181617 L112.179435,125.658133 Z M128.870968,27.4138279 L134.354839,27.4138279 L134.354839,104.172546 L129.522177,104.172546 L128.870968,106.536989 L128.870968,27.4138279 Z M139.83871,27.4138279 L145.322581,27.4138279 L145.322581,106.536989 L144.671371,104.172546 L139.83871,104.172546 L139.83871,27.4138279 Z M142.957661,21.9310623 L131.270161,21.9310623 L137.096774,13.1586374 L142.957661,21.9310623 Z M85,5.48276557 C100.149194,5.48276557 114.715726,9.76617617 127.431452,17.7847208 L123.387097,23.8500302 L123.387097,32.8965934 L24.9516129,32.8965934 C40.0665323,15.4202782 61.6592742,5.48276557 85,5.48276557 Z M123.387097,38.379359 L123.387097,54.8276557 L16.4516129,54.8276557 L16.4516129,38.379359 L123.387097,38.379359 Z M10.9677419,56.0270107 L10.9677419,113.938722 C7.4375,104.960693 5.48387097,95.1945172 5.48387097,84.9828664 C5.48387097,75.0453538 7.36895161,65.210643 10.9677419,56.0270107 Z M85,164.482967 C61.0766129,164.482967 39.5866935,153.860109 25.0201613,137.069139 L104.193548,137.069139 L104.193548,144.642209 L111.391129,146.595444 C111.631048,147.212256 111.905242,147.863334 112.179435,148.480145 L108.477823,154.956662 L112.933468,159.411409 C104.022177,162.769603 94.6653226,164.482967 85,164.482967 Z M164.516129,140.4616 L158.518145,142.10643 L158.072581,143.545656 C157.66129,144.813546 157.147177,146.081435 156.495968,147.315057 L155.77621,148.651482 L158.860887,154.065713 L154.0625,158.863132 L148.647177,155.779077 L147.310484,156.49869 C146.076613,157.149768 144.808468,157.663777 143.540323,158.074985 L142.100806,158.52046 L140.455645,164.517234 L133.669355,164.517234 L132.024194,158.52046 L130.584677,158.074985 C129.316532,157.698045 128.048387,157.149768 126.814516,156.49869 L125.477823,155.779077 L120.0625,158.863132 L115.264113,154.065713 L118.34879,148.651482 L117.629032,147.315057 C116.977823,146.081435 116.46371,144.847813 116.052419,143.545656 L115.606855,142.10643 L109.608871,140.4616 L109.608871,133.676678 L115.606855,132.031848 L116.052419,130.592622 C116.46371,129.324733 116.977823,128.056843 117.629032,126.823221 L118.34879,125.486797 L115.264113,120.072566 L120.0625,115.275146 L125.477823,118.359202 L126.814516,117.639589 C128.048387,116.98851 129.316532,116.474501 130.584677,116.063294 L132.024194,115.617819 L133.669355,109.621044 L140.455645,109.621044 L142.100806,115.617819 L143.540323,116.063294 C144.808468,116.440234 146.076613,116.98851 147.310484,117.639589 L148.647177,118.359202 L154.0625,115.275146 L158.860887,120.072566 L155.77621,125.486797 L156.495968,126.823221 C157.147177,128.056843 157.66129,129.290466 158.072581,130.592622 L158.518145,132.031848 L164.516129,133.676678 L164.516129,140.4616 L164.516129,140.4616 Z"/>
      <path d="M136.85,119.85 C127.933854,119.85 120.7,127.083854 120.7,136 C120.7,144.916146 127.933854,152.15 136.85,152.15 C145.766146,152.15 153,144.916146 153,136 C153,127.083854 145.766146,119.85 136.85,119.85 Z M136.85,146.766667 C130.928333,146.766667 126.083333,141.921667 126.083333,136 C126.083333,130.078333 130.928333,125.233333 136.85,125.233333 C142.771667,125.233333 147.616667,130.078333 147.616667,136 C147.616667,141.921667 142.771667,146.766667 136.85,146.766667 Z"/>
    </g>
    <g fill="#8CA0C3" transform="translate(22 66)">
      <path d="M54.3716814,0.845070423 L0,0.845070423 L0,27.8873239 L54.3716814,27.8873239 L54.3716814,0.845070423 Z M48.9345133,22.4788732 L5.43716814,22.4788732 L5.43716814,6.25352113 L48.9345133,6.25352113 L48.9345133,22.4788732 Z"/>
      <polygon points="60.319 0 96 0 96 5.915 60.319 5.915"/>
      <polygon points="60.319 10.986 96 10.986 96 16.901 60.319 16.901"/>
      <polygon points="90.053 21.972 96 21.972 96 27.887 90.053 27.887"/>
      <polygon points="60.319 21.972 84.106 21.972 84.106 27.887 60.319 27.887"/>
      <path d="M0 60L38.2300885 60 38.2300885 32.9577465 0 32.9577465 0 60zM5.46144121 38.3661972L32.7686473 38.3661972 32.7686473 54.5915493 5.46144121 54.5915493 5.46144121 38.3661972zM43.3274336 60L81.5575221 60 81.5575221 32.9577465 43.3274336 32.9577465 43.3274336 60zM48.7888748 38.3661972L76.0960809 38.3661972 76.0960809 54.5915493 48.7888748 54.5915493 48.7888748 38.3661972z"/>
    </g>
  </g>
</svg>
