<svg id="Capa_1" enable-background="new 0 0 510.68 510.68" height="512" viewBox="0 0 510.68 510.68" width="512" xmlns="http://www.w3.org/2000/svg"><g><path d="m503.18 302.601c-4.142 0-7.5 3.358-7.5 7.5v147.253c0 13.49-10.975 24.465-24.464 24.465h-431.752c-13.49 0-24.464-10.975-24.464-24.465v-237.729h266.24c4.142 0 7.5-3.358 7.5-7.5s-3.358-7.5-7.5-7.5h-266.24v-32.308c0-13.49 10.975-24.464 24.464-24.464h223.864c4.142 0 7.5-3.358 7.5-7.5s-3.358-7.5-7.5-7.5h-223.864c-21.76 0-39.464 17.703-39.464 39.464v285.037c0 21.761 17.704 39.465 39.464 39.465h431.751c21.761 0 39.464-17.704 39.464-39.465v-147.253c.001-4.142-3.357-7.5-7.499-7.5z"/><path d="m479.372 13.861c-16.005 0-29.236 12.075-31.08 27.592l-55.488 45.954h-50.292c-31.309 0-56.781 25.472-56.781 56.781v18.656c0 31.309 25.472 56.781 56.781 56.781h.187v10.276c0 4.142 3.358 7.5 7.5 7.5s7.5-3.358 7.5-7.5v-10.276h35.105l10.244 8.484-16.522 15.684c-1.492 1.416-2.336 3.383-2.336 5.439v45.077c0 1.599-1.301 2.9-2.899 2.9h-20.691c-1.599 0-2.9-1.301-2.9-2.9v-32.446c0-4.142-3.358-7.5-7.5-7.5s-7.5 3.358-7.5 7.5v32.446c0 9.87 8.03 17.9 17.9 17.9h20.691c9.87 0 17.899-8.03 17.899-17.9v-41.856l15.494-14.708 33.608 27.834c1.844 15.518 15.075 27.593 31.08 27.593 17.263 0 31.308-14.045 31.308-31.309v-216.694c0-17.263-14.045-31.308-31.308-31.308zm-178.641 148.983v-18.656c0-23.038 18.743-41.781 41.781-41.781h7.75v102.218h-7.75c-23.038 0-41.781-18.742-41.781-41.781zm194.949 99.02c0 8.993-7.316 16.309-16.308 16.309s-16.308-7.316-16.308-16.309v-128.552c0-4.142-3.358-7.5-7.5-7.5s-7.5 3.358-7.5 7.5v112.602l-47.773-39.565c-1.345-1.114-3.037-1.724-4.784-1.724h-30.245v-102.218h30.245c1.747 0 3.438-.61 4.784-1.724l47.773-39.566v40.232c0 4.142 3.358 7.5 7.5 7.5s7.5-3.358 7.5-7.5v-56.18c0-8.992 7.316-16.308 16.308-16.308s16.308 7.316 16.308 16.308z"/><path d="m208.47 421.896c-2.17 3.528-1.069 8.147 2.458 10.318 13.339 8.206 28.697 12.542 44.412 12.542 46.806 0 84.886-38.08 84.886-84.886s-38.08-84.886-84.886-84.886-84.886 38.08-84.886 84.886c0 17.322 5.199 33.996 15.036 48.219 2.355 3.406 7.026 4.26 10.435 1.902 3.407-2.356 4.258-7.027 1.902-10.435-8.094-11.705-12.373-25.428-12.373-39.687 0-38.535 31.351-69.886 69.886-69.886s69.886 31.351 69.886 69.886-31.351 69.886-69.886 69.886c-12.938 0-25.578-3.568-36.552-10.319-3.53-2.17-8.148-1.068-10.318 2.46z"/><path d="m245.816 400.533c3.213 0 6.411-.964 9.166-2.865l35.51-24.513c4.366-3.013 6.972-7.979 6.972-13.284s-2.606-10.271-6.972-13.285l-35.51-24.512c-4.954-3.419-11.342-3.806-16.671-1.008s-8.641 8.274-8.641 14.293v49.024c0 6.02 3.311 11.497 8.641 14.293 2.366 1.243 4.94 1.857 7.505 1.857zm-1.147-65.174c0-.171 0-.69.611-1.011.205-.107.388-.146.548-.146.317 0 .539.152.632.217l35.51 24.512c.327.226.493.542.493.94s-.166.714-.493.94l-35.51 24.512c-.141.097-.568.392-1.18.072-.611-.321-.611-.841-.611-1.012z"/><path d="m43.858 169.268c-4.142 0-7.5 3.358-7.5 7.5s3.358 7.5 7.5 7.5h4.628c4.142 0 7.5-3.358 7.5-7.5s-3.358-7.5-7.5-7.5z"/><path d="m90.141 169.268c-4.142 0-7.5 3.358-7.5 7.5s3.358 7.5 7.5 7.5h4.628c4.142 0 7.5-3.358 7.5-7.5s-3.358-7.5-7.5-7.5z"/><path d="m136.424 169.268c-4.142 0-7.5 3.358-7.5 7.5s3.358 7.5 7.5 7.5h4.628c4.142 0 7.5-3.358 7.5-7.5s-3.358-7.5-7.5-7.5z"/></g></svg>