<?xml version="1.0"?>
<svg xmlns="http://www.w3.org/2000/svg" viewBox="0 0 64 64" width="512" height="512"><g id="Outline"><g><path d="M38,22a1,1,0,0,0,1,1h2a1,1,0,0,0,0-2H39A1,1,0,0,0,38,22Z"/><path d="M6,22a1,1,0,0,0-1-1H3a1,1,0,0,0,0,2H5A1,1,0,0,0,6,22Z"/><path d="M22,6a1,1,0,0,0,1-1V3a1,1,0,0,0-2,0V5A1,1,0,0,0,22,6Z"/><path d="M36.724,14.5a1,1,0,0,0,.5-.134l1.731-1a1,1,0,0,0-1-1.732l-1.731,1a1,1,0,0,0,.5,1.866Z"/><path d="M6.777,29.634l-1.732,1a1,1,0,1,0,1,1.732l1.732-1a1,1,0,1,0-1-1.732Z"/><path d="M12.634,7.777a1,1,0,1,0,1.732-1l-1-1.732a1,1,0,1,0-1.732,1Z"/><path d="M37.223,29.634a1,1,0,1,0-1,1.732l1.731,1a1,1,0,1,0,1-1.732Z"/><path d="M5.045,13.366l1.732,1a1,1,0,1,0,1-1.732l-1.732-1a1,1,0,0,0-1,1.732Z"/><path d="M30,8.144a1,1,0,0,0,1.366-.367l1-1.732a1,1,0,1,0-1.732-1l-1,1.732A1,1,0,0,0,30,8.144Z"/><path d="M59,22.184V21.7a8.972,8.972,0,0,0,1.747-11.269,1,1,0,0,0-1.723,1.017,6.972,6.972,0,0,1-1.65,9.009,1,1,0,0,0-.374.78V22h-.883l.877-7.89a1,1,0,0,0-1.31-1.059L53,13.946l-2.684-.895a1,1,0,0,0-1.31,1.059L49.883,22H49v-.76a1,1,0,0,0-.374-.78A6.993,6.993,0,0,1,56.549,8.975a1,1,0,1,0,1.017-1.722A8.994,8.994,0,0,0,47,21.7v.481a2.982,2.982,0,0,0,0,5.632V28a5.991,5.991,0,0,0,2.934,5.111,4.948,4.948,0,0,0,1.707,7.27l-2.9,9.67A5.832,5.832,0,0,0,48,50a5.939,5.939,0,0,0-1.438.182l-2.049-3.1a4.114,4.114,0,1,0-1.838.846L44.7,50.994a6.019,6.019,0,0,0-2.46,3.335L27.984,52.684a5.985,5.985,0,0,0-10.1-4.038A7.013,7.013,0,0,1,15.077,44H28.924a6.964,6.964,0,0,1-.946,2.629,1,1,0,1,0,1.707,1.042A8.952,8.952,0,0,0,30.931,44H31a2.987,2.987,0,0,0,2.22-5A2.987,2.987,0,0,0,31,34V32.709A13.954,13.954,0,0,0,33.3,13.75a1,1,0,0,0-1.614,1.181,11.956,11.956,0,0,1-2.3,16.515,1,1,0,0,0-.383.787V34H26V29.542a5.108,5.108,0,0,1,1.5-3.633,7.125,7.125,0,0,0,1.877-3.316l.588-2.35a1,1,0,0,0-1.417-1.138L25.2,20.783l-2.49-2.49a1,1,0,0,0-1.414,0l-2.49,2.49-3.356-1.678a1,1,0,0,0-1.417,1.138l.593,2.374a7.228,7.228,0,0,0,1.9,3.341A5.1,5.1,0,0,1,18,29.568L18,34H15V32.233a1,1,0,0,0-.383-.788A11.987,11.987,0,0,1,29.069,12.319a1,1,0,0,0,1.181-1.614,13.987,13.987,0,0,0-17.25,22V34a2.987,2.987,0,0,0-2.22,5A2.987,2.987,0,0,0,13,44h.067a9.015,9.015,0,0,0,3.611,6.241,6,6,0,1,0,11.08,4.43l14.258,1.645A6,6,0,0,0,48,62a1,1,0,0,0,0-2,4,4,0,1,1,2.828-1.171,1,1,0,0,0,1.414,1.415,5.993,5.993,0,0,0-1.586-9.616l2.9-9.673c.148.014.291.045.443.045a5,5,0,0,0,0-10,4.947,4.947,0,0,0-2.474.681A3.993,3.993,0,0,1,49,28h8a3.885,3.885,0,0,1-.094.8,1,1,0,0,0,.774,1.184,1.036,1.036,0,0,0,.206.021,1,1,0,0,0,.977-.8A5.887,5.887,0,0,0,59,28v-.184a2.982,2.982,0,0,0,0-5.632ZM40,44a2,2,0,1,1,2,2A2,2,0,0,1,40,44ZM17.889,24.492a5.146,5.146,0,0,1-1.326-2.361l-.066-.264L18.553,22.9a1,1,0,0,0,1.154-.188L22,20.414l2.293,2.293a1,1,0,0,0,1.154.188L27.5,21.867l-.06.241A5.147,5.147,0,0,1,26.091,24.5,7.092,7.092,0,0,0,24,29.542V34H20l0-4.43A7.151,7.151,0,0,0,17.889,24.492ZM13,36H31a1,1,0,0,1,0,2H13a1,1,0,0,1,0-2Zm-1,5a1,1,0,0,1,1-1H31a1,1,0,0,1,0,2H13A1,1,0,0,1,12,41ZM22,57a4,4,0,1,1,4-4A4,4,0,0,1,22,57ZM57,36a3,3,0,1,1-3-3A3,3,0,0,1,57,36ZM51.166,15.443l1.518.506a1,1,0,0,0,.632,0l1.518-.506L54.1,22H51.9ZM58,26H48a1,1,0,0,1,0-2H58a1,1,0,0,1,0,2Z"/><circle cx="53" cy="3" r="1"/><path d="M42.108,9.866A1,1,0,1,0,41.742,8.5,1,1,0,0,0,42.108,9.866Z"/><circle cx="59" cy="4.608" r="1" transform="matrix(0.966, -0.259, 0.259, 0.966, 0.818, 15.427)"/><path d="M47.5,5.474a1,1,0,1,0-1.366-.366A1,1,0,0,0,47.5,5.474Z"/></g></g></svg>
