<svg height="512pt" viewBox="0 0 512 512" width="512pt" xmlns="http://www.w3.org/2000/svg"><path d="m25.601562 512h341.332032c14.136718 0 25.601562-11.460938 25.601562-25.601562v-102.398438c0-14.136719-11.464844-25.601562-25.601562-25.601562h-341.332032c-14.140624 0-25.601562 11.464843-25.601562 25.601562v102.398438c0 14.140624 11.460938 25.601562 25.601562 25.601562zm-8.535156-128c0-4.710938 3.820313-8.535156 8.535156-8.535156h341.332032c4.710937 0 8.53125 3.824218 8.53125 8.535156v102.398438c0 4.714843-3.820313 8.535156-8.53125 8.535156h-341.332032c-4.714843 0-8.535156-3.820313-8.535156-8.535156zm0 0"/><path d="m25.601562 332.800781h341.332032c14.136718 0 25.601562-11.460937 25.601562-25.601562v-102.398438c0-14.140625-11.464844-25.601562-25.601562-25.601562h-341.332032c-14.140624 0-25.601562 11.460937-25.601562 25.601562v102.398438c0 14.140625 11.460938 25.601562 25.601562 25.601562zm-8.535156-128c0-4.714843 3.820313-8.535156 8.535156-8.535156h341.332032c4.710937 0 8.53125 3.820313 8.53125 8.535156v102.398438c0 4.714843-3.820313 8.535156-8.53125 8.535156h-341.332032c-4.714843 0-8.535156-3.820313-8.535156-8.535156zm0 0"/><path d="m486.398438 0h-341.332032c-14.136718 0-25.601562 11.460938-25.601562 25.601562v102.398438c0 14.136719 11.464844 25.601562 25.601562 25.601562h341.332032c14.140624 0 25.601562-11.464843 25.601562-25.601562v-102.398438c0-14.140624-11.460938-25.601562-25.601562-25.601562zm8.535156 128c0 4.710938-3.820313 8.535156-8.535156 8.535156h-341.332032c-4.710937 0-8.53125-3.824218-8.53125-8.535156v-102.398438c0-4.714843 3.820313-8.535156 8.53125-8.535156h341.332032c4.714843 0 8.535156 3.820313 8.535156 8.535156zm0 0"/><path d="m452.265625 290.132812c4.714844 0 8.535156-3.820312 8.535156-8.53125v-73.269531l2.5 2.5c3.347657 3.234375 8.671875 3.1875 11.960938-.101562 3.292969-3.292969 3.339843-8.617188.105469-11.964844l-17.066407-17.066406c-.796875-.796875-1.742187-1.425781-2.78125-1.851563-2.089843-.863281-4.433593-.863281-6.519531 0-1.042969.425782-1.988281 1.054688-2.785156 1.851563l-17.066406 17.066406c-3.234376 3.347656-3.1875 8.671875.105468 11.964844 3.292969 3.289062 8.613282 3.335937 11.960938.101562l2.519531-2.5v73.269531c0 4.710938 3.820313 8.53125 8.53125 8.53125zm0 0"/><path d="m59.734375 110.933594c4.710937 0 8.53125-3.820313 8.53125-8.535156v-73.265626l2.5 2.5c3.347656 3.234376 8.671875 3.1875 11.964844-.105468 3.289062-3.289063 3.335937-8.613282.101562-11.960938l-17.066406-17.066406c-.792969-.792969-1.734375-1.417969-2.773437-1.84375-2.085938-.863281-4.429688-.863281-6.519532 0-1.039062.425781-1.984375 1.054688-2.78125 1.851562l-17.066406 17.066407c-3.230469 3.351562-3.179688 8.675781.113281 11.964843 3.292969 3.289063 8.617188 3.332032 11.960938.09375l2.5-2.5v73.265626c0 4.714843 3.820312 8.535156 8.535156 8.535156zm0 0"/><path d="m360.25 60.414062-24.308594-5.40625-13.433594-17.53125c-1.675781-2.003906-4.160156-3.164062-6.773437-3.164062-2.617187 0-5.097656 1.160156-6.777344 3.164062l-13.429687 17.53125-24.3125 5.40625c-3.011719.675782-5.421875 2.925782-6.308594 5.882813-.882812 2.957031-.105469 6.160156 2.042969 8.378906l15.222656 15.726563-1.3125 19.96875c-.191406 2.828125 1.039063 5.5625 3.273437 7.300781 2.238282 1.738281 5.191407 2.253906 7.886719 1.375l23.714844-7.738281 23.722656 7.738281c2.691407.878906 5.648438.363281 7.882813-1.375 2.238281-1.738281 3.464844-4.472656 3.277344-7.300781l-1.3125-19.96875 15.222656-15.726563c2.144531-2.21875 2.925781-5.421875 2.042968-8.378906-.886718-2.957031-3.296874-5.207031-6.308593-5.882813zm-25.847656 20.832032c-1.679688 1.730468-2.546875 4.09375-2.386719 6.503906l.742187 11.160156-14.378906-4.683594c-1.71875-.558593-3.570312-.558593-5.289062 0l-14.378906 4.683594.742187-11.160156c.15625-2.410156-.710937-4.773438-2.390625-6.503906l-7.253906-7.484375 12.449218-2.773438c1.96875-.429687 3.71875-1.542969 4.941407-3.140625l8.535156-11.152344 8.53125 11.152344c1.222656 1.59375 2.964844 2.707032 4.925781 3.140625l12.449219 2.773438zm0 0"/><path d="m256 34.132812h-93.867188c-4.710937 0-8.53125 3.820313-8.53125 8.535157 0 4.710937 3.820313 8.53125 8.53125 8.53125h93.867188c4.710938 0 8.535156-3.820313 8.535156-8.53125 0-4.714844-3.824218-8.535157-8.535156-8.535157zm0 0"/><path d="m256 102.398438h-93.867188c-4.710937 0-8.53125 3.820312-8.53125 8.535156 0 4.710937 3.820313 8.53125 8.53125 8.53125h93.867188c4.710938 0 8.535156-3.820313 8.535156-8.53125 0-4.714844-3.824218-8.535156-8.535156-8.535156zm0 0"/><path d="m162.132812 85.332031h68.265626c4.714843 0 8.535156-3.820312 8.535156-8.53125 0-4.714843-3.820313-8.535156-8.535156-8.535156h-68.265626c-4.710937 0-8.53125 3.820313-8.53125 8.535156 0 4.710938 3.820313 8.53125 8.53125 8.53125zm0 0"/><path d="m469.332031 34.132812h-93.867187c-4.710938 0-8.53125 3.820313-8.53125 8.535157 0 4.710937 3.820312 8.53125 8.53125 8.53125h93.867187c4.714844 0 8.535157-3.820313 8.535157-8.53125 0-4.714844-3.820313-8.535157-8.535157-8.535157zm0 0"/><path d="m469.332031 102.398438h-93.867187c-4.710938 0-8.53125 3.820312-8.53125 8.535156 0 4.710937 3.820312 8.53125 8.53125 8.53125h93.867187c4.714844 0 8.535157-3.820313 8.535157-8.53125 0-4.714844-3.820313-8.535156-8.535157-8.535156zm0 0"/><path d="m469.332031 68.265625h-68.265625c-4.710937 0-8.53125 3.820313-8.53125 8.535156 0 4.710938 3.820313 8.53125 8.53125 8.53125h68.265625c4.714844 0 8.535157-3.820312 8.535157-8.53125 0-4.714843-3.820313-8.535156-8.535157-8.535156zm0 0"/><path d="m51.199219 298.667969h51.199219c9.425781 0 17.066406-7.640625 17.066406-17.066407v-51.203124c0-9.425782-7.640625-17.066407-17.066406-17.066407h-51.199219c-9.425781 0-17.066407 7.640625-17.066407 17.066407v51.203124c0 9.425782 7.640626 17.066407 17.066407 17.066407zm0-68.269531h51.199219v51.203124h-51.199219zm0 0"/><path d="m51.199219 443.734375h153.601562c9.425781 0 17.066407-7.640625 17.066407-17.066406v-17.066407c0-9.425781-7.640626-17.066406-17.066407-17.066406h-153.601562c-9.425781 0-17.066407 7.640625-17.066407 17.066406v17.066407c0 9.425781 7.640626 17.066406 17.066407 17.066406zm0-34.132813h153.601562v17.066407h-153.601562zm0 0"/><path d="m256 443.734375h85.332031c9.425781 0 17.066407-7.640625 17.066407-17.066406v-17.066407c0-9.425781-7.640626-17.066406-17.066407-17.066406h-85.332031c-9.425781 0-17.066406 7.640625-17.066406 17.066406v17.066407c0 9.425781 7.640625 17.066406 17.066406 17.066406zm0-34.132813h85.332031v17.066407h-85.332031zm0 0"/><path d="m145.066406 230.398438h204.800782c4.710937 0 8.53125-3.820313 8.53125-8.53125 0-4.714844-3.820313-8.535157-8.53125-8.535157h-204.800782c-4.710937 0-8.53125 3.820313-8.53125 8.535157 0 4.710937 3.820313 8.53125 8.53125 8.53125zm0 0"/><path d="m145.066406 264.535156h204.800782c4.710937 0 8.53125-3.824218 8.53125-8.535156s-3.820313-8.535156-8.53125-8.535156h-204.800782c-4.710937 0-8.53125 3.824218-8.53125 8.535156s3.820313 8.535156 8.53125 8.535156zm0 0"/><path d="m145.066406 298.667969h204.800782c4.710937 0 8.53125-3.820313 8.53125-8.535157 0-4.710937-3.820313-8.53125-8.53125-8.53125h-204.800782c-4.710937 0-8.53125 3.820313-8.53125 8.53125 0 4.714844 3.820313 8.535157 8.53125 8.535157zm0 0"/><path d="m42.667969 477.867188h170.664062c4.714844 0 8.535157-3.820313 8.535157-8.535157 0-4.710937-3.820313-8.53125-8.535157-8.53125h-170.664062c-4.714844 0-8.535157 3.820313-8.535157 8.53125 0 4.714844 3.820313 8.535157 8.535157 8.535157zm0 0"/><path d="m247.464844 477.867188h102.402344c4.710937 0 8.53125-3.820313 8.53125-8.535157 0-4.710937-3.820313-8.53125-8.53125-8.53125h-102.402344c-4.710938 0-8.53125 3.820313-8.53125 8.53125 0 4.714844 3.820312 8.535157 8.53125 8.535157zm0 0"/></svg>