<svg xmlns="http://www.w3.org/2000/svg" width="100" height="53" viewBox="0 0 100 53">
  <style>
    path {
      fill: #21244F;
    }
    @media (prefers-color-scheme: dark) {
      path {
          fill: #ffffff;
      }
    }
  </style>
  <path d="M95.1745465,51.661917 L4.73054119,51.661917 C2.11791068,51.661917 0,49.5441583 0,46.9314328 L0,4.73046522 C0,2.11775873 2.11791068,0 4.73054119,0 L10.4463435,0 L44.2545098,0 L44.7179476,0 L44.7179476,0.0485962001 C51.3266844,0.525730281 56.5464373,6.00761618 56.5977194,12.7255457 L56.6001885,12.7255457 C56.6001885,14.1416711 55.4522303,15.2896482 54.036086,15.2896482 C52.6199417,15.2896482 51.4719835,14.1416711 51.4719835,12.7255457 L51.4695144,12.7255457 C51.416333,8.56258288 48.0389352,5.18786312 43.8746428,5.13925913 L43.8746428,5.128205 L10.636277,5.128205 L5.128205,5.128205 L5.128205,46.533712 L94.7768257,46.533712 L94.7768257,5.128205 L91.3580224,5.128205 L78.3920208,5.128205 L77.6828091,5.128205 L77.6735023,5.00245002 L77.6735023,5.128205 C74.845962,5.128205 72.5456772,7.42869877 72.5456772,10.25641 L72.5546041,10.25641 L72.5546041,10.5487367 L72.5546041,18.7626206 L72.5546041,20.132953 L74.254699,20.132953 L86.6189912,20.132953 L86.6188013,20.1377013 C87.9906911,20.1880337 89.0881269,21.3130099 89.0881269,22.6970555 C89.0881269,24.1131998 87.9401687,25.261158 86.5240244,25.261158 C86.4921156,25.261158 86.4609665,25.2573593 86.4292476,25.2564096 L86.4290577,25.261158 L74.634566,25.261158 L72.7538443,25.261158 L72.5546041,25.261158 L72.5546041,38.8414045 C72.5546041,40.2575489 71.4066459,41.405507 69.9905016,41.405507 C68.5743573,41.405507 67.4263991,40.2575489 67.4263991,38.8414045 L67.4263991,25.261158 L43.6847093,25.261158 L39.1169981,25.261158 L18.9933519,25.261158 C16.1656406,25.261158 13.8651469,27.5711294 13.8651469,30.3986697 C13.8651469,33.22621 16.1656406,35.5264948 18.9933519,35.5264948 L18.9933519,35.517568 L19.2856595,35.517568 L27.8793915,35.517568 L49.4776816,35.517568 C50.8938259,35.517568 52.0417841,36.6655261 52.0417841,38.0816705 C52.0417841,39.4978148 50.8938259,40.645773 49.4776816,40.645773 L19.4039881,40.645773 C19.2676159,40.6510911 19.1310537,40.6546998 18.9933519,40.6546998 C13.3289645,40.6546998 8.73694185,36.0628671 8.73694185,30.3986697 C8.73694185,24.7981 13.2268753,20.2491923 18.8034183,20.1473879 L18.8034183,20.132953 L33.5283942,20.132953 L39.3069316,20.132953 L43.8746428,20.132953 L54.0383652,20.132953 L67.4263991,20.132953 L67.4263991,10.6670653 C67.4210809,10.530693 67.4174722,10.3941118 67.4174722,10.25641 C67.4174722,4.71606826 71.8110143,0.204400755 77.3037018,0.00934829986 L77.302942,0 L79.3333313,0 L91.5479559,0 L95.1745465,0 C97.7870821,0 99.9050307,2.11775873 99.9050307,4.73046522 L99.9050307,46.9314328 C99.9050307,49.5441583 97.7870821,51.661917 95.1745465,51.661917" transform="matrix(1 0 0 -1 0 52.662)"/>
</svg>
